<svg aria-hidden="true" style="position: absolute; width: 0; height: 0; overflow: hidden;" version="1.1" xmlns="http://www.w3.org/2000/svg" xmlns:xlink="http://www.w3.org/1999/xlink">
<defs>
<symbol id="icon-instagram" viewBox="0 0 32 32">
<path d="M31.969 9.408c-0.075-1.7-0.35-2.869-0.744-3.882-0.406-1.075-1.031-2.038-1.85-2.838-0.8-0.813-1.769-1.444-2.832-1.844-1.019-0.394-2.182-0.669-3.882-0.744-1.713-0.081-2.257-0.1-6.601-0.1s-4.888 0.019-6.595 0.094c-1.7 0.075-2.869 0.35-3.882 0.744-1.075 0.406-2.038 1.031-2.838 1.85-0.813 0.8-1.444 1.769-1.844 2.832-0.394 1.019-0.669 2.182-0.744 3.882-0.081 1.713-0.1 2.257-0.1 6.601s0.019 4.888 0.094 6.595c0.075 1.7 0.35 2.869 0.744 3.882 0.406 1.075 1.038 2.038 1.85 2.838 0.8 0.813 1.769 1.444 2.832 1.844 1.019 0.394 2.182 0.669 3.882 0.744 1.706 0.075 2.25 0.094 6.595 0.094s4.888-0.019 6.595-0.094c1.7-0.075 2.869-0.35 3.882-0.744 2.151-0.831 3.851-2.532 4.682-4.682 0.394-1.019 0.669-2.182 0.744-3.882 0.075-1.707 0.094-2.25 0.094-6.595s-0.006-4.888-0.081-6.595zM29.087 22.473c-0.069 1.563-0.331 2.407-0.55 2.969-0.538 1.394-1.644 2.5-3.038 3.038-0.563 0.219-1.413 0.481-2.969 0.55-1.688 0.075-2.194 0.094-6.464 0.094s-4.782-0.019-6.464-0.094c-1.563-0.069-2.407-0.331-2.969-0.55-0.694-0.256-1.325-0.663-1.838-1.194-0.531-0.519-0.938-1.144-1.194-1.838-0.219-0.563-0.481-1.413-0.55-2.969-0.075-1.688-0.094-2.194-0.094-6.464s0.019-4.782 0.094-6.464c0.069-1.563 0.331-2.407 0.55-2.969 0.256-0.694 0.663-1.325 1.2-1.838 0.519-0.531 1.144-0.938 1.838-1.194 0.563-0.219 1.413-0.481 2.969-0.55 1.688-0.075 2.194-0.094 6.464-0.094 4.276 0 4.782 0.019 6.464 0.094 1.563 0.069 2.407 0.331 2.969 0.55 0.694 0.256 1.325 0.662 1.838 1.194 0.531 0.519 0.938 1.144 1.194 1.838 0.219 0.563 0.481 1.413 0.55 2.969 0.075 1.688 0.094 2.194 0.094 6.464s-0.019 4.77-0.094 6.458z"></path>
<path d="M16.059 7.783c-4.538 0-8.22 3.682-8.22 8.22s3.682 8.22 8.22 8.22c4.538 0 8.22-3.682 8.22-8.22s-3.682-8.22-8.22-8.22zM16.059 21.335c-2.944 0-5.332-2.388-5.332-5.332s2.388-5.332 5.332-5.332c2.944 0 5.332 2.388 5.332 5.332s-2.388 5.332-5.332 5.332z"></path>
<path d="M26.524 7.458c0 1.060-0.859 1.919-1.919 1.919s-1.919-0.859-1.919-1.919c0-1.060 0.859-1.919 1.919-1.919s1.919 0.859 1.919 1.919z"></path>
</symbol>
<symbol id="icon-pinterest" viewBox="0 0 32 32">
<path d="M25.314 3.279c-2.203-2.115-5.251-3.279-8.583-3.279-5.090 0-8.221 2.087-9.951 3.837-2.132 2.157-3.355 5.021-3.355 7.858 0 3.562 1.49 6.296 3.985 7.313 0.168 0.069 0.336 0.103 0.501 0.103 0.526 0 0.943-0.344 1.088-0.897 0.084-0.317 0.279-1.099 0.364-1.438 0.182-0.67 0.035-0.993-0.361-1.46-0.722-0.854-1.058-1.864-1.058-3.178 0-3.903 2.906-8.051 8.293-8.051 4.274 0 6.929 2.429 6.929 6.34 0 2.468-0.532 4.753-1.497 6.435-0.671 1.169-1.851 2.562-3.662 2.562-0.783 0-1.487-0.322-1.931-0.883-0.419-0.53-0.558-1.215-0.389-1.929 0.191-0.806 0.45-1.648 0.702-2.461 0.459-1.485 0.892-2.888 0.892-4.008 0-1.915-1.177-3.201-2.929-3.201-2.226 0-3.97 2.261-3.97 5.147 0 1.415 0.376 2.474 0.546 2.881-0.28 1.188-1.947 8.252-2.263 9.584-0.183 0.778-1.284 6.919 0.539 7.409 2.048 0.55 3.878-5.431 4.064-6.107 0.151-0.55 0.679-2.628 1.003-3.906 0.989 0.952 2.58 1.596 4.129 1.596 2.92 0 5.545-1.314 7.394-3.699 1.792-2.314 2.78-5.539 2.78-9.080 0-2.769-1.189-5.498-3.262-7.488z"></path>
</symbol>
<symbol id="icon-twitter" viewBox="0 0 32 32">
<path d="M32 6.078c-1.19 0.522-2.458 0.868-3.78 1.036 1.36-0.812 2.398-2.088 2.886-3.626-1.268 0.756-2.668 1.29-4.16 1.588-1.204-1.282-2.92-2.076-4.792-2.076-3.632 0-6.556 2.948-6.556 6.562 0 0.52 0.044 1.020 0.152 1.496-5.454-0.266-10.28-2.88-13.522-6.862-0.566 0.982-0.898 2.106-0.898 3.316 0 2.272 1.17 4.286 2.914 5.452-1.054-0.020-2.088-0.326-2.964-0.808 0 0.020 0 0.046 0 0.072 0 3.188 2.274 5.836 5.256 6.446-0.534 0.146-1.116 0.216-1.72 0.216-0.42 0-0.844-0.024-1.242-0.112 0.85 2.598 3.262 4.508 6.13 4.57-2.232 1.746-5.066 2.798-8.134 2.798-0.538 0-1.054-0.024-1.57-0.090 2.906 1.874 6.35 2.944 10.064 2.944 12.072 0 18.672-10 18.672-18.668 0-0.29-0.010-0.57-0.024-0.848 1.302-0.924 2.396-2.078 3.288-3.406z"></path>
</symbol>
<symbol id="icon-facebook" viewBox="0 0 32 32">
<path d="M21.329 5.313h2.921v-5.088c-0.504-0.069-2.237-0.225-4.256-0.225-4.212 0-7.097 2.649-7.097 7.519v4.481h-4.648v5.688h4.648v14.312h5.699v-14.311h4.46l0.708-5.688h-5.169v-3.919c0.001-1.644 0.444-2.769 2.735-2.769z"></path>
</symbol>
<symbol id="icon-book" viewBox="0 0 32 32">
<path d="M30.5 8c-0.276 0-0.5 0.224-0.5 0.5v0 18h-2.715c-3.39 0-6.688 0.397-9.849 1.147l0.289-0.058c-0.067 0.016-0.143 0.025-0.222 0.025-0.344 0-0.646-0.174-0.826-0.439l-0.002-0.003c1.688-1.049 3.737-1.671 5.93-1.672h5.895c0.276 0 0.5-0.224 0.5-0.5v0-3.5c0-0.276-0.224-0.5-0.5-0.5s-0.5 0.224-0.5 0.5v0 3h-5.395c-0.003 0-0.008 0-0.012 0-2.24 0-4.342 0.596-6.154 1.638l0.060-0.032v-13.606c0-0.276-0.224-0.5-0.5-0.5s-0.5 0.224-0.5 0.5v0 13.605c-1.752-1.010-3.852-1.605-6.092-1.605-0.005 0-0.009 0-0.014 0h-5.394v-18h7.7c2.099 0.001 3.8 1.703 3.8 3.803v0c0 0.276 0.224 0.5 0.5 0.5s0.5-0.224 0.5-0.5v0c0-2.099 1.701-3.801 3.8-3.803h7.7v13c0 0.276 0.224 0.5 0.5 0.5s0.5-0.224 0.5-0.5v0-13.5c0-0.276-0.224-0.5-0.5-0.5v0h-8.2c-1.873 0.001-3.495 1.074-4.287 2.639l-0.013 0.027c-0.805-1.592-2.427-2.665-4.3-2.666h-8.2c-0.276 0-0.5 0.224-0.5 0.5v0 19c0 0.276 0.224 0.5 0.5 0.5v0h5.895c2.194 0 4.243 0.623 5.98 1.7l-0.049-0.028c-0.182 0.268-0.486 0.442-0.83 0.442-0.078 0-0.154-0.009-0.227-0.026l0.007 0.001c-2.872-0.692-6.17-1.089-9.561-1.089h-2.715v-18c0-0.276-0.224-0.5-0.5-0.5s-0.5 0.224-0.5 0.5v0 18.5c0 0.276 0.224 0.5 0.5 0.5v0h3.215c3.311 0.001 6.531 0.388 9.617 1.12l-0.282-0.056c0.134 0.032 0.289 0.051 0.448 0.051 0.599 0 1.136-0.264 1.5-0.683l0.002-0.002c0.367 0.421 0.903 0.685 1.502 0.685 0.159 0 0.313-0.019 0.462-0.054l-0.014 0.003c2.804-0.675 6.024-1.063 9.335-1.064h3.215c0.276 0 0.5-0.224 0.5-0.5v0-18.5c0-0.276-0.224-0.5-0.5-0.5v0z"></path>
<path d="M14.361 9.806c-0.747-0.505-1.668-0.806-2.66-0.806-0.001 0-0.001 0-0.002 0h-5.7c-0.276 0-0.5 0.224-0.5 0.5s0.224 0.5 0.5 0.5v0h5.7c0.001 0 0.003 0 0.004 0 0.785 0 1.513 0.239 2.118 0.647l-0.013-0.009c0.078 0.053 0.174 0.084 0.277 0.084 0.276 0 0.5-0.224 0.5-0.5 0-0.173-0.088-0.325-0.221-0.415l-0.002-0.001z"></path>
<path d="M26 9h-5.7c-0.001 0-0.002 0-0.004 0-0.992 0-1.913 0.301-2.677 0.817l0.017-0.011c-0.135 0.091-0.223 0.243-0.223 0.416 0 0.276 0.224 0.5 0.5 0.5 0.103 0 0.2-0.031 0.279-0.085l-0.002 0.001c0.591-0.4 1.321-0.639 2.105-0.639 0.001 0 0.003 0 0.004 0h5.7c0.276 0 0.5-0.224 0.5-0.5s-0.224-0.5-0.5-0.5v0z"></path>
<path d="M14.361 12.306c-0.747-0.505-1.668-0.806-2.66-0.806-0.001 0-0.001 0-0.002 0h-5.7c-0.276 0-0.5 0.224-0.5 0.5s0.224 0.5 0.5 0.5v0h5.7c0.001 0 0.003 0 0.004 0 0.785 0 1.513 0.239 2.118 0.647l-0.013-0.009c0.078 0.053 0.174 0.084 0.277 0.084 0.276 0 0.5-0.224 0.5-0.5 0-0.173-0.088-0.325-0.221-0.415l-0.002-0.001z"></path>
<path d="M26 11.5h-5.7c-0.001 0-0.002 0-0.004 0-0.992 0-1.913 0.301-2.677 0.817l0.017-0.011c-0.135 0.091-0.223 0.243-0.223 0.416 0 0.276 0.224 0.5 0.5 0.5 0.103 0 0.2-0.031 0.279-0.085l-0.002 0.001c0.591-0.4 1.321-0.639 2.105-0.639 0.001 0 0.003 0 0.004 0h5.7c0.276 0 0.5-0.224 0.5-0.5s-0.224-0.5-0.5-0.5v0z"></path>
<path d="M14.361 14.806c-0.747-0.505-1.668-0.806-2.66-0.806-0.001 0-0.001 0-0.002 0h-5.7c-0.276 0-0.5 0.224-0.5 0.5s0.224 0.5 0.5 0.5v0h5.7c0.001 0 0.003 0 0.004 0 0.785 0 1.513 0.239 2.118 0.647l-0.013-0.009c0.078 0.053 0.174 0.084 0.277 0.084 0.276 0 0.5-0.224 0.5-0.5 0-0.173-0.088-0.325-0.221-0.415l-0.002-0.001z"></path>
<path d="M26 14h-5.7c-0.001 0-0.002 0-0.004 0-0.992 0-1.913 0.301-2.677 0.817l0.017-0.011c-0.135 0.091-0.223 0.243-0.223 0.416 0 0.276 0.224 0.5 0.5 0.5 0.103 0 0.2-0.031 0.279-0.085l-0.002 0.001c0.591-0.4 1.321-0.639 2.105-0.639 0.001 0 0.003 0 0.004 0h5.7c0.276 0 0.5-0.224 0.5-0.5s-0.224-0.5-0.5-0.5v0z"></path>
<path d="M14.361 17.306c-0.747-0.505-1.668-0.806-2.66-0.806-0.001 0-0.001 0-0.002 0h-5.7c-0.276 0-0.5 0.224-0.5 0.5s0.224 0.5 0.5 0.5v0h5.7c0.001 0 0.003 0 0.004 0 0.785 0 1.513 0.239 2.118 0.647l-0.013-0.009c0.078 0.053 0.174 0.084 0.277 0.084 0.276 0 0.5-0.224 0.5-0.5 0-0.173-0.088-0.325-0.221-0.415l-0.002-0.001z"></path>
<path d="M26 16.5h-5.7c-0.001 0-0.002 0-0.004 0-0.992 0-1.913 0.301-2.677 0.817l0.017-0.011c-0.135 0.091-0.223 0.243-0.223 0.416 0 0.276 0.224 0.5 0.5 0.5 0.103 0 0.2-0.031 0.279-0.085l-0.002 0.001c0.591-0.4 1.321-0.639 2.105-0.639 0.001 0 0.003 0 0.004 0h5.7c0.276 0 0.5-0.224 0.5-0.5s-0.224-0.5-0.5-0.5v0z"></path>
<path d="M14.361 19.806c-0.747-0.505-1.668-0.806-2.66-0.806-0.001 0-0.001 0-0.002 0h-5.7c-0.276 0-0.5 0.224-0.5 0.5s0.224 0.5 0.5 0.5v0h5.7c0.001 0 0.003 0 0.004 0 0.785 0 1.513 0.239 2.118 0.647l-0.013-0.009c0.078 0.053 0.174 0.084 0.277 0.084 0.276 0 0.5-0.224 0.5-0.5 0-0.173-0.088-0.325-0.221-0.415l-0.002-0.001z"></path>
<path d="M26 19h-5.7c-0.001 0-0.002 0-0.004 0-0.992 0-1.913 0.301-2.677 0.817l0.017-0.011c-0.135 0.091-0.223 0.243-0.223 0.416 0 0.276 0.224 0.5 0.5 0.5 0.103 0 0.2-0.031 0.279-0.085l-0.002 0.001c0.591-0.4 1.321-0.639 2.105-0.639 0.001 0 0.003 0 0.004 0h5.7c0.276 0 0.5-0.224 0.5-0.5s-0.224-0.5-0.5-0.5v0z"></path>
<path d="M11.7 21.5h-5.7c-0.276 0-0.5 0.224-0.5 0.5s0.224 0.5 0.5 0.5v0h5.7c0.001 0 0.003 0 0.004 0 0.785 0 1.513 0.239 2.118 0.647l-0.013-0.009c0.078 0.053 0.174 0.084 0.277 0.084 0.276 0 0.5-0.224 0.5-0.5 0-0.173-0.088-0.325-0.221-0.415l-0.002-0.001c-0.747-0.505-1.668-0.806-2.66-0.806-0.001 0-0.003 0-0.004 0h0z"></path>
<path d="M26 21.5h-5.7c-0.001 0-0.002 0-0.004 0-0.992 0-1.913 0.301-2.677 0.817l0.017-0.011c-0.135 0.091-0.223 0.243-0.223 0.416 0 0.276 0.224 0.5 0.5 0.5 0.103 0 0.2-0.031 0.279-0.085l-0.002 0.001c0.591-0.4 1.321-0.639 2.105-0.639 0.001 0 0.003 0 0.004 0h5.7c0.276 0 0.5-0.224 0.5-0.5s-0.224-0.5-0.5-0.5v0z"></path>
</symbol>
<symbol id="icon-clock" viewBox="0 0 32 32">
<path d="M23.023 12.035c0.228 0.331 0.145 0.783-0.185 1.011l-6.586 4.549c-0.124 0.086-0.268 0.129-0.413 0.129-0.116 0-0.231-0.028-0.337-0.083-0.239-0.126-0.389-0.373-0.389-0.643v-9.739c0-0.401 0.325-0.727 0.727-0.727s0.727 0.325 0.727 0.727v8.352l5.446-3.762c0.331-0.227 0.783-0.145 1.012 0.185zM29.131 11.934c0.316 1.151 0.489 2.36 0.489 3.61 0 5.081-2.796 9.52-6.927 11.867l2.962 2.962c0.372 0.372 0.372 0.975 0 1.347s-0.975 0.372-1.347 0.001l-3.369-3.369c-0.024-0.025-0.043-0.052-0.063-0.078-1.522 0.588-3.173 0.913-4.899 0.913-1.531 0-3.002-0.258-4.377-0.725l-3.258 3.259c-0.372 0.371-0.975 0.371-1.347-0.001s-0.372-0.974 0-1.347l2.717-2.717c-4.378-2.274-7.378-6.848-7.378-12.112 0-1.265 0.177-2.489 0.5-3.652-2.523-2.755-2.459-7.031 0.209-9.699 2.742-2.742 7.188-2.742 9.929 0l-0.057 0.058c0.81-0.187 1.647-0.299 2.504-0.335v-0.456c0-0.094 0.019-0.184 0.053-0.266h-0.185c-0.33 0-0.598-0.268-0.598-0.598s0.268-0.598 0.598-0.598h1.667c0.33 0 0.598 0.267 0.598 0.598s-0.267 0.598-0.598 0.598h-0.186c0.034 0.082 0.053 0.172 0.053 0.266v0.466c0.78 0.049 1.543 0.165 2.283 0.338l-0.072-0.073c2.742-2.742 7.188-2.742 9.929 0 2.681 2.681 2.733 6.987 0.172 9.741zM27.395 15.544c0-6.297-5.123-11.421-11.42-11.421s-11.421 5.123-11.421 11.421c0 6.296 5.123 11.42 11.421 11.42s11.42-5.124 11.42-11.42z"></path>
</symbol>
<symbol id="icon-home" viewBox="0 0 32 32">
<path d="M29.158 30.125v-16.47l0.963 0.84 1.232-1.414-4.103-3.576v-9.505h-6.547v3.799l-4.266-3.718-14.916 13 1.232 1.414 0.963-0.84v16.47h-2.342v1.875h30.125v-1.875zM22.579 1.875h2.797v5.996l-2.797-2.437zM5.592 12.021l10.845-9.452 10.845 9.452v18.104h-11.062v-12.021h-9.375v12.021h-1.254zM14.346 30.125h-5.625v-10.146h5.625z"></path>
<path d="M2.219 3.668h1.875v1.771h-1.875z"></path>
<path d="M2.219 0h1.875v1.76h-1.875z"></path>
<path d="M4.106 1.782h1.771v1.875h-1.771z"></path>
<path d="M0.438 1.782h1.773v1.875h-1.773z"></path>
<path d="M17.658 26.391h8.25v-8.288h-8.25zM19.533 23.297h1.313v1.219h-1.313zM22.721 24.516v-1.219h1.313v1.219zM24.033 21.422h-1.313v-1.443h1.313zM20.846 19.979v1.443h-1.312v-1.443z"></path>
<path d="M12.565 25.318c0.49 0 0.96-0.431 0.938-0.938-0.023-0.508-0.412-0.938-0.938-0.938-0.49 0-0.96 0.431-0.938 0.938 0.023 0.508 0.412 0.938 0.938 0.938z"></path>
<path d="M16.438 14.835c1.867 0 3.386-1.519 3.386-3.386s-1.519-3.386-3.386-3.386-3.386 1.519-3.386 3.386c0 1.867 1.519 3.386 3.386 3.386zM16.438 9.938c0.833 0 1.511 0.678 1.511 1.511s-0.678 1.511-1.511 1.511-1.511-0.678-1.511-1.511c0-0.833 0.678-1.511 1.511-1.511z"></path>
<path d="M5.689 5.069h1.773v1.875h-1.773z"></path>
</symbol>
<symbol id="icon-magnifier" viewBox="0 0 32 32">
<path d="M31.609 29.724l-9.1-9.1c1.763-2.177 2.824-4.944 2.824-7.957 0-6.984-5.683-12.667-12.667-12.667s-12.666 5.683-12.666 12.666 5.683 12.667 12.667 12.667c3.013 0 5.78-1.061 7.957-2.824l9.1 9.1c0.26 0.26 0.601 0.391 0.943 0.391s0.683-0.131 0.943-0.391c0.521-0.521 0.521-1.364-0-1.885zM12.667 22.667c-5.515 0-10-4.485-10-10s4.485-10 10-10 10 4.485 10 10-4.485 10-10 10z"></path>
</symbol>
<symbol id="icon-monitor" viewBox="0 0 32 32">
<path d="M30.502 2.266h-29.003c-0.828 0-1.498 0.67-1.498 1.498v19.323c0 0.828 0.671 1.498 1.498 1.498h10.899v1.672h-4.014l-1.922 3.478h19.077l-1.921-3.478h-4.014v-1.672h10.899c0.826 0 1.498-0.67 1.498-1.498v-19.323c0-0.828-0.672-1.498-1.498-1.498zM29.002 21.589h-26.006v-16.327h26.006v16.327z"></path>
</symbol>
<symbol id="icon-qr" viewBox="0 0 32 32">
<path d="M3.733 8.533h-3.2c-0.294 0-0.533-0.239-0.533-0.533v-7.467c0-0.294 0.239-0.533 0.533-0.533h7.467c0.294 0 0.533 0.239 0.533 0.533v3.2c0 0.294-0.239 0.533-0.533 0.533h-3.733v3.733c0 0.294-0.239 0.533-0.533 0.533zM1.067 7.467h2.133v-3.733c0-0.294 0.239-0.533 0.533-0.533h3.733v-2.133h-6.4z"></path>
<path d="M8 32h-7.467c-0.294 0-0.533-0.239-0.533-0.533v-7.467c0-0.294 0.239-0.533 0.533-0.533h3.2c0.294 0 0.533 0.239 0.533 0.533v3.733h3.733c0.294 0 0.533 0.239 0.533 0.533v3.2c0 0.294-0.239 0.533-0.533 0.533zM1.067 30.933h6.4v-2.133h-3.733c-0.294 0-0.533-0.239-0.533-0.533v-3.733h-2.133z"></path>
<path d="M31.467 8.533h-3.2c-0.294 0-0.533-0.239-0.533-0.533v-3.733h-3.733c-0.294 0-0.533-0.239-0.533-0.533v-3.2c0-0.294 0.239-0.533 0.533-0.533h7.467c0.294 0 0.533 0.239 0.533 0.533v7.467c0 0.294-0.239 0.533-0.533 0.533zM28.8 7.467h2.133v-6.4h-6.4v2.133h3.733c0.294 0 0.533 0.239 0.533 0.533z"></path>
<path d="M31.467 32h-7.467c-0.294 0-0.533-0.239-0.533-0.533v-3.2c0-0.294 0.239-0.533 0.533-0.533h3.733v-3.733c0-0.294 0.239-0.533 0.533-0.533h3.2c0.294 0 0.533 0.239 0.533 0.533v7.467c0 0.294-0.239 0.533-0.533 0.533zM24.533 30.933h6.4v-6.4h-2.133v3.733c0 0.294-0.239 0.533-0.533 0.533h-3.733z"></path>
<path d="M24.533 25.067h-17.067c-0.294 0-0.533-0.239-0.533-0.533v-17.067c0-0.294 0.239-0.533 0.533-0.533h17.067c0.294 0 0.533 0.239 0.533 0.533v17.067c0 0.294-0.239 0.533-0.533 0.533zM8 24h16v-16h-16z"></path>
<path d="M31.467 16.533h-30.933c-0.294 0-0.533-0.239-0.533-0.533s0.239-0.533 0.533-0.533h30.933c0.294 0 0.533 0.239 0.533 0.533s-0.239 0.533-0.533 0.533z"></path>
</symbol>
<symbol id="icon-schedule" viewBox="0 0 32 32">
<path d="M31.339 0h-30.678c-0.315 0-0.571 0.256-0.571 0.571v5.038c0 0.315 0.256 0.571 0.571 0.571h4.341c0.315 0 0.571-0.256 0.571-0.571s-0.256-0.571-0.571-0.571h-3.77v-3.896h29.536v3.896h-23.939c-0.315 0-0.571 0.256-0.571 0.571s0.256 0.571 0.571 0.571h22.666v17.437h-26.99v-16.144c0-0.315-0.256-0.571-0.571-0.571s-0.571 0.256-0.571 0.571v16.715c0 0.315 0.256 0.571 0.571 0.571h7.46l-3.917 6.372c-0.108 0.176-0.113 0.397-0.012 0.578s0.292 0.292 0.498 0.292h4.349c0.198 0 0.382-0.103 0.486-0.272l4.285-6.97h1.831l4.286 6.97c0.104 0.169 0.288 0.272 0.486 0.272h4.349c0.207 0 0.397-0.112 0.498-0.292s0.096-0.401-0.012-0.578l-3.918-6.372h7.461c0.315 0 0.571-0.256 0.571-0.571v-18.008h0.702c0.315 0 0.571-0.256 0.571-0.571v-5.038c0-0.315-0.256-0.571-0.571-0.571zM9.994 30.858h-3.009l3.75-6.1h3.009l-3.75 6.1zM25.015 30.858h-3.009l-3.751-6.1h3.009l3.751 6.1z"></path>
<path d="M19.51 19.259h-10.191v-11.021c0-0.315-0.256-0.571-0.571-0.571s-0.571 0.256-0.571 0.571v11.021h-2.689c-0.315 0-0.571 0.256-0.571 0.571s0.256 0.571 0.571 0.571h2.689v0.874c0 0.315 0.256 0.571 0.571 0.571s0.571-0.256 0.571-0.571v-0.874h10.191c0.315 0 0.571-0.256 0.571-0.571s-0.256-0.571-0.571-0.571z"></path>
<path d="M24.143 19.259h-2.464c-0.315 0-0.571 0.256-0.571 0.571s0.256 0.571 0.571 0.571h2.464c0.315 0 0.571-0.256 0.571-0.571s-0.256-0.571-0.571-0.571z"></path>
<path d="M23.262 9.434c-0.223-0.223-0.584-0.223-0.807 0l-5.015 5.015-1.764-1.764c-0.107-0.107-0.252-0.167-0.404-0.167s-0.297 0.060-0.404 0.167l-4.407 4.407c-0.223 0.223-0.223 0.584 0 0.807 0.111 0.111 0.258 0.167 0.404 0.167s0.292-0.056 0.404-0.167l4.004-4.004 1.764 1.764c0.107 0.107 0.252 0.167 0.404 0.167s0.297-0.060 0.404-0.167l5.419-5.419c0.223-0.223 0.223-0.584 0-0.807z"></path>
</symbol>
<symbol id="icon-shopping-cart" viewBox="0 0 32 32">
<path d="M14.397 27.372c0 1.531-1.241 2.771-2.771 2.771s-2.771-1.241-2.771-2.771c0-1.531 1.241-2.771 2.771-2.771s2.771 1.241 2.771 2.771z"></path>
<path d="M27.471 27.372c0 1.531-1.241 2.771-2.771 2.771s-2.771-1.241-2.771-2.771c0-1.531 1.241-2.771 2.771-2.771s2.771 1.241 2.771 2.771z"></path>
<path d="M31.829 9.108c-0.166-0.225-0.428-0.358-0.708-0.358h-22.052c-0.337 0-0.644-0.193-0.791-0.496l-2.728-5.631c-0.227-0.47-0.703-0.767-1.224-0.767h-3.626c-0.386 0.001-0.7 0.313-0.7 0.7v0.884c0 0.387 0.314 0.7 0.7 0.7h2.595c0.179 0 0.336 0.121 0.383 0.294l4.348 16.51c0.416 1.581 1.847 2.684 3.482 2.684h13.522c1.577 0 2.968-1.025 3.437-2.53l3.491-11.209c0.084-0.266 0.035-0.557-0.13-0.782zM25.994 20.329c-0.134 0.423-0.52 0.709-0.964 0.709h-13.52c-0.457 0-0.858-0.31-0.975-0.754l-2.146-8.148c-0.051-0.19-0.009-0.392 0.11-0.549 0.12-0.156 0.306-0.247 0.502-0.247h18.932c0.201 0 0.391 0.095 0.51 0.258 0.119 0.162 0.153 0.371 0.095 0.563l-2.543 8.166z"></path>
</symbol>
</defs>
</svg>
